<?xml version="1.0" standalone="no"?>
<!DOCTYPE svg PUBLIC "-//W3C//DTD SVG 1.1//EN" "http://www.w3.org/Graphics/SVG/1.1/DTD/svg11.dtd" >
<svg xmlns="http://www.w3.org/2000/svg" xmlns:xlink="http://www.w3.org/1999/xlink" version="1.1" id="Layer_1" x="0px" y="0px" width="41px" height="153.4px" viewBox="-285 320.6 41 153.4" style="enable-background:new -285 320.6 41 153.4;" xml:space="preserve">
<style type="text/css">
	.st0{fill:#79776B;}
</style>
<path class="st0" d="M-252.2,458h-22.1v0.2c0.2,2.1,1.9,3.8,4.1,3.8h23.2c0.6,0,1,0.4,1,1s-0.4,1-1,1h-23.3c-3.2,0-5.8-2.5-6.1-5.6  l-1.3-18.6c-0.2-2.1-1.9-3.8-4.1-3.8h-2.2c-0.6,0-1-0.4-1-1c0-0.6,0.4-1,1-1h2.3c3.2,0,5.8,2.5,6.1,5.6l1.2,16.4h22.3  c1.5,0,2.7-0.9,3.2-2.3l3-11.9c0.1-0.5,0.7-0.9,1.2-0.7c0.5,0.1,0.9,0.7,0.7,1.2l-3,12C-247.8,456.5-249.8,458-252.2,458L-252.2,458  z M-248,470c0,2.2-1.8,4-4,4s-4-1.8-4-4s1.8-4,4-4S-248,467.8-248,470z M-250,470c0-1.1-0.9-2-2-2s-2,0.9-2,2s0.9,2,2,2  S-250,471.1-250,470z M-266,470c0,2.2-1.8,4-4,4s-4-1.8-4-4s1.8-4,4-4S-266,467.8-266,470z M-268,470c0-1.1-0.9-2-2-2s-2,0.9-2,2  s0.9,2,2,2S-268,471.1-268,470z M-252,344.6h-22.3v0.2c0.2,2.1,1.9,3.8,4.1,3.8h23.2c0.6,0,1,0.4,1,1s-0.4,1-1,1h-23.3  c-3.2,0-5.8-2.5-6.1-5.6l-1.3-18.6c-0.1-2.1-1.9-3.8-4-3.8h-2.3c-0.6,0-1-0.4-1-1s0.4-1,1-1h2.3c3.2,0,5.8,2.5,6.1,5.6l1.1,16.4  h22.5c1.4,0,2.5-0.9,3-2.3l2.7-10.8l-24.8-2.9c-0.5-0.1-0.9-0.6-0.9-1.1s0.6-0.9,1.1-0.9l26,3c0.3,0,0.5,0.2,0.7,0.4  c0.2,0.2,0.2,0.6,0.2,0.8l-3,12C-247.8,343.1-249.7,344.6-252,344.6z M-248,356.6c0,2.2-1.8,4-4,4s-4-1.8-4-4s1.8-4,4-4  S-248,354.4-248,356.6z M-250,356.6c0-1.1-0.9-2-2-2s-2,0.9-2,2s0.9,2,2,2S-250,357.7-250,356.6z M-266,356.6c0,2.2-1.8,4-4,4  s-4-1.8-4-4s1.8-4,4-4S-266,354.4-266,356.6z M-268,356.6c0-1.1-0.9-2-2-2s-2,0.9-2,2s0.9,2,2,2S-268,357.7-268,356.6z"/>
</svg>
